# xmcd
#
# Track frame offsets:
#	150
#	21072
#	34846
#	53446
#	67209
#	80753
#	96486
#	110566
#	130790
#	144701
#	163850
#	183324
#	203105
#
# Disc length: 2901 seconds
#
# Revision: 0
# Processed by: cddbd v1.5.2PL0 Copyright (c) Steve Scherf et al.
# Submitted via: EasyCDDAExtractor 16.0.6.1
#
DISCID=bc0b530d
DTITLE=Филипп Клибанов\\ - О женщинах с любовью
DYEAR=2012
DGENRE=
TTITLE0=Натали, Натали, Натали
TTITLE1=Ира, Ирочка, Ириша
TTITLE2=Вот такая любовь, Валентина!
TTITLE3=Лилия
TTITLE4=Таня, Танечка, Татьяна
TTITLE5=Настя, Настенька
TTITLE6=Света, Светочка, Светлана
TTITLE7=Марина-буги
TTITLE8=Мама
TTITLE9=Прощай, Мария!
TTITLE10=Зоя, Зоенька
TTITLE11=Песенка про Аню
TTITLE12=Рая, Раиса
EXTD=
EXTT0=
EXTT1=
EXTT2=
EXTT3=
EXTT4=
EXTT5=
EXTT6=
EXTT7=
EXTT8=
EXTT9=
EXTT10=
EXTT11=
EXTT12=
PLAYORDER=
